<svg width="18" height="20" fill="none" xmlns="http://www.w3.org/2000/svg"><path d="M2.784 10V1.54c0-.143.056-.28.156-.382A.53.53 0 0 1 3.317 1H13.67a.53.53 0 0 1 .377.158l2.797 2.834a.54.54 0 0 1 .156.383V18.46a.547.547 0 0 1-.156.382.531.531 0 0 1-.377.158H9.004" stroke="#6D5540" stroke-linecap="round" stroke-linejoin="round"/><path d="M13.446 1v3.06c0 .143.056.28.156.382a.53.53 0 0 0 .377.158H17M1 16.3h2.665m0 0h2.666m-2.666 0v-2.7m0 2.7V19" stroke="#6D5540" stroke-linecap="round" stroke-linejoin="round"/></svg>
