<svg width="20" height="20" fill="none" xmlns="http://www.w3.org/2000/svg"><path d="M18.325 19H7.3a.675.675 0 0 1-.675-.675V7.3a.675.675 0 0 1 .675-.675h11.025A.675.675 0 0 1 19 7.3v11.025a.675.675 0 0 1-.675.675Z" stroke="#A8886B" stroke-width=".75" stroke-linecap="round" stroke-linejoin="round"/><path d="M13.375 6.625v-4.95A.675.675 0 0 0 12.7 1H1.675A.675.675 0 0 0 1 1.675V12.7a.675.675 0 0 0 .675.675h4.95" stroke="#A8886B" stroke-width=".75" stroke-linecap="round" stroke-linejoin="round"/></svg>