<svg width="16" height="20" fill="none" xmlns="http://www.w3.org/2000/svg"><path d="M4.938 3.321H2.75c-.464 0-.91.181-1.237.503A1.697 1.697 0 0 0 1 5.036v12c0 .454.184.89.513 1.212.328.321.773.502 1.237.502h10.5c.464 0 .91-.18 1.237-.502.329-.322.513-.758.513-1.212v-12c0-.455-.184-.891-.513-1.212a1.769 1.769 0 0 0-1.237-.503h-2.188" stroke="#A8886B" stroke-width=".75" stroke-linecap="round"/><path d="M4.5 5.379V3.75c0-.114.046-.223.128-.303a.442.442 0 0 1 .31-.126.507.507 0 0 0 .482-.425C5.55 2.166 6.052.75 8 .75s2.45 1.416 2.58 2.146a.507.507 0 0 0 .482.425c.117 0 .228.046.31.126.082.08.128.19.128.303v1.629a.509.509 0 0 1-.154.363.53.53 0 0 1-.371.15h-5.95a.53.53 0 0 1-.371-.15.509.509 0 0 1-.154-.363Z" stroke="#A8886B" stroke-width=".75" stroke-linecap="round"/></svg>