<svg width="18" height="21" fill="none" xmlns="http://www.w3.org/2000/svg"><path d="m12.582 15.357.856-1.83a.296.296 0 0 1 .268-.176.292.292 0 0 1 .268.176l.857 1.83 1.912.296c.246.038.344.357.167.54l-1.385 1.424.327 2.012c.041.259-.216.456-.435.334l-1.711-.95-1.711.95c-.22.122-.476-.075-.435-.334l.327-2.012-1.384-1.425c-.179-.182-.08-.501.166-.54l1.913-.295Z" stroke="#6D5540" stroke-linecap="round" stroke-linejoin="round"/><path d="M16.059 10.5V4.562a.576.576 0 0 0-.166-.404l-2.963-2.99A.562.562 0 0 0 12.531 1H1.565c-.15 0-.294.06-.4.167A.573.573 0 0 0 1 1.57v17.86c0 .151.06.296.165.403.106.107.25.167.4.167h6.023" stroke="#6D5540" stroke-linecap="round" stroke-linejoin="round"/><path d="M12.294 1v3.23c0 .151.06.296.165.403.106.107.25.167.4.167h3.2" stroke="#6D5540" stroke-linecap="round" stroke-linejoin="round"/></svg>