<svg width="20" height="20" fill="none" xmlns="http://www.w3.org/2000/svg"><path d="M10 1a9 9 0 0 0-9 9 9 9 0 0 0 9 9 9 9 0 0 0 9-9 9 9 0 0 0-9-9Z" stroke="#6D5540" stroke-linecap="round" stroke-linejoin="round"/><path d="M3.044 15.004S5.05 12.566 10 12.566c4.95 0 6.957 2.438 6.957 2.438M10 9.567a2.77 2.77 0 0 0 1.91-.752c.506-.482.79-1.136.79-1.818 0-.682-.284-1.335-.79-1.817A2.77 2.77 0 0 0 10 4.427a2.77 2.77 0 0 0-1.91.753 2.51 2.51 0 0 0-.79 1.817c0 .682.285 1.336.79 1.818a2.77 2.77 0 0 0 1.91.752Z" stroke="#6D5540" stroke-linecap="round" stroke-linejoin="round"/></svg>