<svg width="20" height="20" fill="none" xmlns="http://www.w3.org/2000/svg"><path d="M10 12.7a2.7 2.7 0 1 0 0-5.4 2.7 2.7 0 0 0 0 5.4Z" stroke="#6D5540" stroke-linecap="round" stroke-linejoin="round"/><path d="m16.86 8.556-.987-2.385L17.2 4.6l-1.8-1.8-1.562 1.335-2.436-1.002L10.842 1h-1.76l-.568 2.16-2.38 1.004L4.6 2.8 2.8 4.6l1.308 1.61-.972 2.391L1 9.1v1.8l2.16.59 1.004 2.38L2.8 15.4l1.8 1.8 1.612-1.314 2.345.965L9.1 19h1.8l.544-2.148 2.385-.989c.398.285 1.571 1.337 1.571 1.337l1.8-1.8-1.336-1.575.989-2.387L19 10.88V9.1l-2.14-.544Z" stroke="#6D5540" stroke-linecap="round" stroke-linejoin="round"/></svg>