<svg xmlns="http://www.w3.org/2000/svg" width="23" height="20" fill="none"><path stroke="#6D5540" stroke-linecap="round" stroke-linejoin="round" d="M8.583 19V1m11.084 18H3.333c-.619 0-1.212-.21-1.65-.586C1.246 18.04 1 17.53 1 17V3c0-.53.246-1.04.683-1.414A2.544 2.544 0 0 1 3.333 1h16.334c.618 0 1.212.21 1.65.586C21.754 1.96 22 2.47 22 3v14c0 .53-.246 1.04-.683 1.414a2.544 2.544 0 0 1-1.65.586Z"/><path stroke="#6D5540" stroke-linecap="round" stroke-linejoin="round" d="m3.917 8 2.041 2-2.041 2"/></svg>