<svg width="38" height="32" fill="none" xmlns="http://www.w3.org/2000/svg"><path d="M37 1.017s-3.302 1.993-5.138 2.558a7.308 7.308 0 0 0-3.752-2.351 7.184 7.184 0 0 0-4.394.268 7.36 7.36 0 0 0-3.451 2.791A7.607 7.607 0 0 0 19 8.591v1.671a17.136 17.136 0 0 1-8.295-1.896 17.557 17.557 0 0 1-6.432-5.677s-6.546 15.047 8.181 21.734A18.753 18.753 0 0 1 1 27.767c14.727 8.36 32.727 0 32.727-19.227 0-.464-.045-.93-.13-1.387C35.265 5.47 37 1.017 37 1.017Z" stroke="#6D5540" stroke-linecap="round" stroke-linejoin="round"/></svg>