<svg xmlns="http://www.w3.org/2000/svg" width="104" height="36" fill="none"><path fill="#6D5540" d="M15.29 29v-.72c.817-.048 1.428-.144 1.837-.288.431-.144.72-.432.864-.864.143-.432.215-1.08.215-1.944V7.328c0-.888-.072-1.536-.215-1.944a1.298 1.298 0 0 0-.864-.864c-.409-.168-1.02-.264-1.836-.288v-.72c.551.024 1.247.048 2.087.072a89.699 89.699 0 0 0 5.112 0c.817-.024 1.477-.048 1.98-.072v.72c-.816.024-1.44.12-1.871.288-.409.144-.684.432-.829.864-.143.408-.215 1.056-.215 1.944v17.856c0 .864.072 1.512.215 1.944.145.432.42.72.829.864.431.144 1.055.24 1.872.288V29a21.771 21.771 0 0 0-1.98-.072 89.699 89.699 0 0 0-5.113 0c-.84 0-1.536.024-2.088.072ZM.242 29v-.72c.816-.048 1.428-.144 1.836-.288.432-.144.72-.432.864-.864.144-.432.216-1.08.216-1.944V7.328c0-.888-.072-1.536-.216-1.944a1.298 1.298 0 0 0-.864-.864c-.408-.168-1.02-.264-1.836-.288v-.72c.504.024 1.164.048 1.98.072a89.699 89.699 0 0 0 5.112 0c.84-.024 1.536-.048 2.088-.072v.72c-.816.024-1.44.12-1.872.288-.408.144-.684.432-.828.864-.144.408-.216 1.056-.216 1.944v17.856c0 .864.072 1.512.216 1.944.144.432.42.72.828.864.432.144 1.056.24 1.872.288V29a24.876 24.876 0 0 0-2.088-.072 89.699 89.699 0 0 0-5.112 0c-.816 0-1.476.024-1.98.072Zm5.004-12.456v-.72h14.22v.72H5.246Zm26.71 12.708c-.983 0-1.835-.18-2.555-.54a4.057 4.057 0 0 1-1.656-1.584c-.36-.672-.54-1.452-.54-2.34 0-1.056.24-1.92.72-2.592a5.681 5.681 0 0 1 1.908-1.62 14.212 14.212 0 0 1 2.412-1.008c.864-.288 1.68-.552 2.448-.792.768-.264 1.392-.564 1.872-.9.504-.336.756-.78.756-1.332v-2.232c0-1.008-.156-1.776-.468-2.304-.288-.528-.684-.876-1.188-1.044a4.722 4.722 0 0 0-1.692-.288c-.6 0-1.248.084-1.944.252a2.862 2.862 0 0 0-1.62 1.044c.456.096.852.336 1.188.72.336.384.504.876.504 1.476s-.192 1.08-.576 1.44c-.384.336-.876.504-1.476.504-.696 0-1.212-.216-1.548-.648a2.62 2.62 0 0 1-.468-1.512c0-.624.156-1.128.468-1.512a5.802 5.802 0 0 1 1.188-1.08c.552-.384 1.26-.708 2.124-.972.888-.288 1.884-.432 2.988-.432.984 0 1.824.12 2.52.36.696.216 1.272.54 1.728.972a4.053 4.053 0 0 1 1.224 2.124c.192.816.288 1.8.288 2.952v10.008c0 .6.084 1.032.252 1.296.192.264.48.396.864.396.264 0 .516-.06.756-.18s.528-.312.864-.576l.396.612c-.504.384-.984.708-1.44.972-.456.24-1.068.36-1.836.36-.696 0-1.272-.12-1.728-.36a2.436 2.436 0 0 1-1.044-1.044c-.216-.48-.324-1.08-.324-1.8-.648 1.08-1.428 1.884-2.34 2.412-.888.528-1.896.792-3.024.792Zm1.297-1.44c.792 0 1.524-.228 2.196-.684.696-.456 1.32-1.14 1.872-2.052V18.02c-.288.408-.708.756-1.26 1.044-.552.264-1.152.54-1.8.828-.648.264-1.272.588-1.872.972-.576.36-1.056.84-1.44 1.44-.384.6-.576 1.38-.576 2.34s.252 1.728.756 2.304c.528.576 1.236.864 2.124.864ZM56.87 9.956c.913 0 1.669.12 2.269.36.623.24 1.14.576 1.547 1.008.456.48.78 1.08.972 1.8.192.72.288 1.692.288 2.916v9.612c0 1.008.205 1.692.613 2.052.431.36 1.14.54 2.124.54V29a68.359 68.359 0 0 0-1.873-.072 42.932 42.932 0 0 0-2.448-.072c-.791 0-1.572.024-2.34.072-.743.024-1.307.048-1.691.072v-.756c.863 0 1.475-.18 1.835-.54.36-.36.54-1.044.54-2.052V15.248c0-.744-.06-1.428-.18-2.052-.12-.624-.396-1.128-.828-1.512-.407-.384-1.044-.576-1.907-.576-1.008 0-1.896.288-2.664.864-.745.576-1.333 1.368-1.765 2.376-.407.984-.611 2.088-.611 3.312v7.992c0 1.008.18 1.692.54 2.052.36.36.972.54 1.836.54V29c-.385-.024-.96-.048-1.729-.072a35.8 35.8 0 0 0-2.304-.072c-.791 0-1.608.024-2.447.072-.84.024-1.465.048-1.872.072v-.756c.983 0 1.68-.18 2.087-.54.432-.36.648-1.044.648-2.052V14.384c0-1.08-.191-1.872-.575-2.376-.385-.528-1.105-.792-2.16-.792v-.756c.767.072 1.511.108 2.232.108.696 0 1.355-.036 1.98-.108a11.284 11.284 0 0 0 1.764-.396v4.248c.623-1.632 1.488-2.76 2.592-3.384 1.127-.648 2.303-.972 3.527-.972ZM82.636.776v24.3c0 1.08.192 1.884.576 2.412.408.504 1.128.756 2.16.756V29a23.159 23.159 0 0 0-2.232-.108c-.696 0-1.368.036-2.016.108-.624.072-1.2.204-1.728.396v-24.3c0-1.08-.192-1.872-.576-2.376-.384-.528-1.104-.792-2.16-.792v-.756c.768.072 1.512.108 2.232.108.696 0 1.356-.036 1.98-.108a11.284 11.284 0 0 0 1.764-.396Zm-7.56 9.18c1.056 0 2.04.252 2.952.756.936.504 1.56 1.368 1.872 2.592l-.468.36c-.336-1.008-.864-1.74-1.584-2.196-.696-.456-1.524-.684-2.484-.684-1.416 0-2.604.732-3.564 2.196-.936 1.464-1.392 3.72-1.368 6.768 0 1.944.18 3.564.54 4.86.384 1.272.936 2.232 1.656 2.88.744.624 1.644.936 2.7.936 1.008 0 1.92-.432 2.736-1.296.816-.864 1.308-2.136 1.476-3.816l.432.504c-.192 1.824-.78 3.228-1.764 4.212-.96.984-2.268 1.476-3.924 1.476-1.488 0-2.796-.36-3.924-1.08-1.104-.72-1.956-1.8-2.556-3.24-.576-1.44-.864-3.252-.864-5.436s.372-3.996 1.116-5.436c.768-1.464 1.764-2.556 2.988-3.276a7.934 7.934 0 0 1 4.032-1.08Zm28.838.504v.72c-.456.048-.876.252-1.26.612s-.744.996-1.08 1.908l-5.904 15.48h-.612l-6.624-15.948c-.456-.936-.912-1.5-1.368-1.692-.432-.216-.792-.324-1.08-.324v-.756c.528.072 1.08.132 1.656.18.576.024 1.2.036 1.872.036.744 0 1.524-.024 2.34-.072.84-.048 1.62-.096 2.34-.144v.756c-.6 0-1.14.048-1.62.144-.456.072-.744.324-.864.756-.12.408.024 1.116.432 2.124l4.428 10.98-.216.072 4.104-10.728c.312-.792.432-1.416.36-1.872-.048-.48-.288-.84-.72-1.08-.432-.24-1.08-.384-1.944-.432v-.72c.432.024.804.048 1.116.072.312 0 .612.012.9.036h1.008c.552 0 1.044-.012 1.476-.036.456-.024.876-.048 1.26-.072Zm-8.244 18.72-1.224 3.132a8.85 8.85 0 0 1-.756 1.512c-.24.408-.504.744-.792 1.008-.384.36-.84.6-1.368.72a5.519 5.519 0 0 1-1.44.216 3.11 3.11 0 0 1-1.26-.252 2.027 2.027 0 0 1-.864-.756c-.216-.312-.324-.696-.324-1.152 0-.576.168-1.044.504-1.404.336-.336.804-.504 1.404-.504.504 0 .936.144 1.296.432.36.288.54.708.54 1.26 0 .408-.096.744-.288 1.008-.192.264-.42.468-.684.612a.276.276 0 0 0 .108.036h.108c.648 0 1.224-.228 1.728-.684.504-.432.948-1.14 1.332-2.124l1.296-3.348.684.288Z"/></svg>