<svg width="18" height="15" viewBox="0 0 18 15" fill="none" xmlns="http://www.w3.org/2000/svg">
<path d="M18 0.00840606C18 0.00840606 16.3489 1.00486 15.4309 1.28741C14.9382 0.708522 14.2833 0.298223 13.5548 0.112002C12.8264 -0.0742188 12.0596 -0.0273762 11.3581 0.246195C10.6565 0.519765 10.0542 1.00686 9.63244 1.64161C9.2107 2.27636 8.98993 3.02813 9 3.79525V4.6312C7.56215 4.6693 6.13741 4.34348 4.85264 3.68277C3.56788 3.02207 2.46299 2.04698 1.63636 0.844355C1.63636 0.844355 -1.63636 8.36789 5.72727 11.7117C4.04225 12.8803 2.03495 13.4663 0 13.3836C7.36364 17.5633 16.3636 13.3836 16.3636 3.77018C16.3636 3.53778 16.3407 3.30539 16.2982 3.07634C17.1327 2.23537 18 0.00840606 18 0.00840606Z" fill="#F3EFEC"/>
</svg>
